<svg 
          width="15" 
          height="19.5" fill="none" 
          xmlns="http://www.w3.org/2000/svg">
          <path d="M 7.5 0 C 3.365999937057495 0 0 3.365999937057495 0 7.5 C 0 10.263000011444092 1.5172500014305115 12.667499989271164 3.75 13.96875 L 3.75 14.25 L 3.726749897003174 15 L 3.75 15 C 3.785249998793006 15 4.4909998923540115 15.020250007510185 5.226749897003174 15.46875 C 5.876999884843826 15.864000007510185 6.559499893337488 16.52624997496605 6.726749897003174 18 L 0.75 18 L 0.75 19.5 L 14.25 19.5 L 14.25 18 L 8.273250102996826 18 C 8.440500106662512 16.52624997496605 9.123000115156174 15.864000007510185 9.773250102996826 15.46875 C 10.508250117301941 15.020250007510185 11.214750001206994 15 11.25 15 L 11.273250102996826 15 L 11.25 14.25 L 11.25 13.96875 C 13.482749998569489 12.668250024318695 15 10.263000011444092 15 7.5 C 15 3.365999937057495 11.634000062942505 0 7.5 0 Z M 7.5 1.5 C 10.822499871253967 1.5 13.5 4.177500128746033 13.5 7.5 C 13.5 10.822499871253967 10.822499871253967 13.5 7.5 13.5 C 4.177500128746033 13.5 1.5 10.822499871253967 1.5 7.5 C 1.5 4.177500128746033 4.177500128746033 1.5 7.5 1.5 Z M 9.75 6 C 9.337499991059303 6 9 6.337499991059303 9 6.75 C 9 7.162500008940697 9.337499991059303 7.5 9.75 7.5 C 10.162500008940697 7.5 10.5 7.162500008940697 10.5 6.75 C 10.5 6.337499991059303 10.162500008940697 6 9.75 6 Z M 8.25 7.5 C 7.837499991059303 7.5 7.5 7.837499991059303 7.5 8.25 C 7.5 8.662500008940697 7.837499991059303 9 8.25 9 C 8.662500008940697 9 9 8.662500008940697 9 8.25 C 9 7.837499991059303 8.662500008940697 7.5 8.25 7.5 Z M 10.5 8.25 C 10.087499991059303 8.25 9.75 8.587499991059303 9.75 9 C 9.75 9.412500008940697 10.087499991059303 9.75 10.5 9.75 C 10.912500008940697 9.75 11.25 9.412500008940697 11.25 9 C 11.25 8.587499991059303 10.912500008940697 8.25 10.5 8.25 Z M 6.75 9 C 6.337499991059303 9 6 9.337499991059303 6 9.75 C 6 10.162500008940697 6.337499991059303 10.5 6.75 10.5 C 7.162500008940697 10.5 7.5 10.162500008940697 7.5 9.75 C 7.5 9.337499991059303 7.162500008940697 9 6.75 9 Z M 9 9.75 C 8.587499991059303 9.75 8.25 10.087499991059303 8.25 10.5 C 8.25 10.912500008940697 8.587499991059303 11.25 9 11.25 C 9.412500008940697 11.25 9.75 10.912500008940697 9.75 10.5 C 9.75 10.087499991059303 9.412500008940697 9.75 9 9.75 Z M 6.960750102996826 15 L 8.039249897003174 15 C 7.834736980497837 15.231230579316616 7.654072422534227 15.482502713799477 7.5 15.75 C 7.345927577465773 15.482502713799477 7.165263019502163 15.231230579316616 6.960750102996826 15 Z" fill="rgb(0,0,0)"/>
        </svg>