<svg
          width="21"
          height="21" fill="none"
          xmlns="http://www.w3.org/2000/svg">
          <path d="M 10.5 0 C 13.284773111343384 -3.3306690738754696e-16 15.955488681793213 1.1062467098236084 17.924620628356934 3.075378656387329 C 19.893752574920654 5.04451060295105 21 7.715226888656616 21 10.5 C 21 13.284773111343384 19.893752574920654 15.955488681793213 17.924620628356934 17.924620628356934 C 15.955488681793213 19.893752574920654 13.284773111343384 21 10.5 21 C 7.715226888656616 21 5.04451060295105 19.893752574920654 3.075378656387329 17.924620628356934 C 1.1062467098236084 15.955488681793213 8.326672684688674e-16 13.284773111343384 0 10.5 C -3.3306690738754696e-16 7.715226888656616 1.1062467098236084 5.04451060295105 3.075378656387329 3.075378656387329 C 5.04451060295105 1.1062467098236084 7.715226888656616 2.3314683517128287e-15 10.5 0 Z M 10.5 19.5 C 12.88694840669632 19.499999964431698 15.176133334636688 18.55178815126419 16.86396074295044 16.86396074295044 C 18.55178815126419 15.176133334636688 19.500000000000004 12.88694840669632 19.5 10.5 C 19.500000000000004 8.11305159330368 18.55178815126419 5.823866307735443 16.86396074295044 4.136038899421692 C 15.176133334636688 2.4482114911079407 12.88694840669632 1.500000035568303 10.5 1.5 C 8.11305159330368 1.500000035568303 5.823866307735443 2.4482114911079407 4.136038899421692 4.136038899421692 C 2.4482114911079407 5.823866307735443 1.5000000000000007 8.11305159330368 1.5 10.5 C 1.5 12.88694840669632 2.4482114911079407 15.176133334636688 4.136038899421692 16.86396074295044 C 5.823866307735443 18.55178815126419 8.11305159330368 19.499999964431694 10.5 19.5 Z M 9.375 13.696499347686768 L 14.170499324798584 10.5 L 9.375 7.303499937057495 L 9.375 13.696499347686768 Z M 9.623999834060669 5.665499925613403 L 15.47100019454956 9.563999891281128 C 15.625077612698078 9.666738353669643 15.751409098505974 9.8059245608747 15.83878469467163 9.969205141067505 C 15.926160290837288 10.13248572126031 15.971878051757812 10.314810790121555 15.971878051757812 10.5 C 15.971878051757812 10.685189209878445 15.926160290837288 10.867514993995428 15.83878469467163 11.030795574188232 C 15.751409098505974 11.194076154381037 15.625077612698078 11.33326093107462 15.47100019454956 11.435999393463135 L 9.623999834060669 15.33449935913086 C 9.454578392207623 15.44743712246418 9.25768218934536 15.512277794536203 9.054305791854858 15.522106647491455 C 8.850929394364357 15.531935500446707 8.648698456585407 15.486384630203247 8.469175815582275 15.390310764312744 C 8.289653174579144 15.294236898422241 8.139570225030184 15.151242010295391 8.034929752349854 14.976573944091797 C 7.930289279669523 14.801905877888203 7.875014791449303 14.602113738656044 7.875 14.398499965667725 L 7.875 6.6000001430511475 C 7.875014791449303 6.396386370062828 7.930289279669523 6.196593515574932 8.034929752349854 6.021925449371338 C 8.139570225030184 5.847257383167744 8.289653174579144 5.704263210296631 8.469175815582275 5.608189344406128 C 8.648698456585407 5.512115478515625 8.850929394364357 5.466564608272165 9.054305791854858 5.476393461227417 C 9.25768218934536 5.486222314182669 9.454578392207623 5.551062270998955 9.623999834060669 5.664000034332275 L 9.623999834060669 5.665499925613403 Z" fill="rgb(255,255,255)"/>
        </svg>