<svg 
          width="12.000244140625" 
          height="18.660722732543945" fill="none" 
          xmlns="http://www.w3.org/2000/svg">
          <path d="M 9.125805629344416 1.1379637300079808 C 9.01875447170281 1.1065417349382647 8.906480275257687 1.0969544491850303 8.795651495342236 1.1097713831758738 C 8.684822715426785 1.1225883171667173 8.577699142614172 1.1575480227756425 8.48064537066853 1.2125739905901414 L 8.47688437837848 1.2125739905901414 C 8.30839405391702 1.2316554703822196 8.149448349828686 1.3006481394700105 8.02044461391086 1.4106987017238233 C 7.959627828905855 1.4307619731012942 7.901319541487274 1.4577220637199841 7.847399505056479 1.4922058095752684 C 7.80778891569267 1.515435437148233 7.770426167604679 1.5423024138636476 7.735796692822273 1.57245890442784 C 7.656726660093433 1.598352998979024 7.582088307835341 1.63620111930903 7.514474554158894 1.6846877611800462 C 7.34735119567996 1.8050871539020406 7.229742917918738 1.9821800161376706 7.1835957265707755 2.1829203249825713 C 7.137448535222813 2.3836606338274717 7.16591420461003 2.5943340141670257 7.2636827388647704 2.775628096492457 L 7.322619700398252 2.879079609667615 L 7.326380692688301 2.8859761579708727 L 7.338920522625808 2.906666400812699 L 7.348952625748614 2.9229678223829882 L 7.369015636130223 2.958078691521313 C 7.320514601373783 3.1695948384046773 7.205343914872013 3.359933857586404 7.040479506124365 3.501040758438265 C 7.0651843654039395 3.2343909972854235 7.025847194461892 2.9656968877568257 6.925742334337784 2.717319257480585 L 6.915711427078981 2.6928671251251517 C 7.02261739935645 2.43531329322153 7.024329372103899 2.1461196064346155 6.920480532723724 1.8873179650771739 C 6.81663169334355 1.6285163237197322 6.6154925345122875 1.4207200989939814 6.360208680314662 1.3085015005135654 L 6.126346711713776 0.9586482422178149 C 5.927584435358427 0.5712728416663739 5.59790711475677 0.26692121296237076 5.195912497143628 0.09968946483584937 C 5.013368846050992 0.033680349400111206 4.820729337335878 -0.00005286313609846928 4.626617551864456 6.218057789843654e-8 L 4.626617551864456 0.0006270686867059773 C 4.270505806955165 0.005466963417795171 3.922100527333841 0.10501140579007001 3.6171845612432216 0.289036598825275 L 3.366393941813102 0.43951107693234004 L 3.1388006923169662 0.5711763130105123 C 2.8977322790644493 0.6992064211703861 2.687507683609223 0.8783023931554683 2.5227991856309924 1.0959645341321314 C 2.3580906876527616 1.3136266751087944 2.242866397481316 1.5646110649130904 2.185168360397833 1.8314005553126473 C 2.152205550999724 2.0986913556828024 2.175024448662072 2.3699133537645443 2.252183981204901 2.6279391782827735 C 2.32934351374773 2.8859650028010027 2.459167523616217 3.125188667048096 2.633457265302674 3.330503062674187 L 2.6566558311006614 3.371256616599909 C 2.6283342890182197 3.5198114992485348 2.6319497315793177 3.672692700583747 2.667261948945001 3.819742728394434 C 2.7025741663106846 3.9667927562051206 2.7687744344277454 4.104644655098907 2.861464881675917 4.2241400212696885 C 2.9541553289240885 4.34363538744047 3.0712133831175588 4.442038060455428 3.204862013649484 4.512810255914655 C 3.3385106441814094 4.583582451373881 3.485689877977489 4.625103807280062 3.636620938887156 4.634615592433201 C 3.693048884315058 4.705464014886541 3.754492689779269 4.772550818764235 3.82157924494137 4.833367609032347 C 3.8021429537172953 4.90546998842843 3.7858411598502366 4.977572442566019 3.7733016172003713 5.050928774233501 L 0.8703975066027273 6.762576245317688 L 0.48794140089354354 6.98201850475866 C 0.08667603609785085 7.214000072031793 -0.09514724240182992 7.703041934354644 0.04905750391080182 8.141925967416794 L 0.38135523815274225 9.145089727815446 C 0.5067506693227399 9.508736493795999 0.9330950119772567 9.671751008464913 1.2653928816881663 9.477388074732579 C 1.5161837440281618 9.333183315940413 1.6290398217377164 9.032233901934557 1.5349932460245463 8.756363935092283 L 1.1588070179133658 7.627804854126813 C 1.1086488473139042 7.471060553935277 1.1713467170532472 7.301776945911579 1.3092816885374385 7.2202699128016405 L 3.753238606818762 5.778848864245003 C 3.7986630385171063 6.154446797141747 3.929259249537594 6.514712070506879 4.1350678181950205 6.832170752870382 C 4.200137805639639 6.932905608474618 4.234952772329859 7.050188588677277 4.235384065967069 7.170111186642861 L 4.235384065967069 13.535811227418268 L 2.8039952452743564 15.067515830505318 L 2.79145541533685 15.057484922378437 L 2.3945790956573845 15.500757066667811 C 2.151269016645503 15.778214692594723 2.017514626233887 16.134892672605822 2.0183925685802033 16.503920827066462 L 2.0183925685802033 17.67636871867936 C 2.0187243745655907 17.93733382768881 2.122539617203487 18.187515568452998 2.3070699534275576 18.372045920646393 C 2.491600289651628 18.556576272839788 2.7417815603159945 18.660390926529843 3.002746646741426 18.660722732543945 L 4.231621877813016 18.660722732543945 C 4.410958333761333 18.660549082769503 4.585475569889024 18.60265050645681 4.7293524345829665 18.495594229100437 C 4.873229299276909 18.388537951744063 4.978822764097433 18.238010556650277 5.030509557201667 18.06628379825662 C 5.082196350305901 17.894557039862963 5.0772308520266956 17.710753978585576 5.016347537743826 17.542068396042104 C 4.9554642234609565 17.373382813498633 4.841897671735878 17.228776646102215 4.692450463172364 17.129644762248798 L 4.567055153457304 17.048763689257203 L 4.567055153457304 17.028700677139334 L 6.431057643183972 15.395425356150916 L 6.447359661275532 15.38100443088839 C 6.478708519068031 16.4719447662008 6.507548739133796 17.562885475220746 6.535762711847747 18.654452817032592 L 9.528951714509635 18.660722732543945 C 9.703409400347041 18.66082219913771 9.87316386517213 18.60415861255029 10.012583034681912 18.49928825332599 C 10.152002204191694 18.39441789410169 10.253516731051661 18.247035051704497 10.301799156262705 18.079391664730004 C 10.350081581473749 17.91174827775551 10.342509926495424 17.732946245430774 10.280228161373067 17.56998464774858 C 10.21794639625071 17.407023050066385 10.104335214507326 17.26874947827735 9.956549630948189 17.17604070199589 L 9.942129902797658 17.166636426660915 L 9.926455713307776 17.158485416909745 L 9.06624203507326 16.685116960647406 L 9.19853449042675 9.208414319856784 L 9.209193226287232 8.938187299397182 L 9.209193226287232 8.743824104069574 L 9.21734423533301 8.317480014142392 L 9.19351903679735 8.317480014142392 C 9.160902072670368 7.329286753304795 8.978462851803213 6.351770092470184 8.652437214047563 5.418337093390881 C 8.721629984685292 5.359679879545086 8.788557363808685 5.2984002711823095 8.853070905455661 5.2346326348461645 C 9.969090208300697 4.599504723294876 10.41925919827231 3.747442952007897 10.60233652236175 3.1072992126856347 C 10.754691969411473 2.5693527866858905 10.726477613647335 2.006954041476946 10.690112940196292 1.6890765824515834 L 11.836227804994744 1.0131951917160793 C 11.992972091621569 0.9254183832351116 12.043129542834091 0.731055561615037 11.961622516777801 0.5868508028228713 C 11.94130485976934 0.5511732365739742 11.914082947337244 0.519900871664935 11.881546267259836 0.4948597038311241 C 11.849009587182428 0.46981853599731316 11.811810158615062 0.45151035168643355 11.772119927511445 0.44100411326953737 C 11.732429696407829 0.4304978748526412 11.691044388807153 0.42800417878704367 11.650379776122152 0.43366853335611266 C 11.609715163437151 0.43933288792518166 11.570587184611474 0.453041772458649 11.5352790616786 0.47399486482972164 L 10.67318548523106 0.9818463615743749 L 10.589796692424244 0.8376415934395207 C 10.562815092600664 0.7949154896978847 10.520616296176142 0.7640286286340421 10.471732626980772 0.7512257623961567 C 10.422848957785403 0.7384228961582713 10.370927616510857 0.7446593216354581 10.326466243056617 0.7686741671277708 C 10.28700778534512 0.7938654719631009 10.257530746676608 0.8319865856462114 10.243078646113803 0.8765142026084397 C 10.212678935303684 0.8546331874250692 10.176714542292633 0.8417876205761351 10.139331464516587 0.8394581110175766 C 10.101948386740542 0.8371286014590181 10.064668410192679 0.8454100317817962 10.031787414709227 0.8633477387938278 C 10.006899947930632 0.8793004433542334 9.985844846903435 0.9005555603145708 9.970128666704472 0.9255930634788829 C 9.95441248650551 0.950630566643195 9.94442329259475 0.978831735308761 9.940875441458306 1.008179438686612 C 9.91267129725163 0.9951941436128189 9.881816952581174 0.988997516090199 9.850786222641586 0.9900863137184808 C 9.819755492701999 0.9911751113467625 9.789411704883731 0.9995190398751064 9.762187050372846 1.014449204714953 C 9.737258478104815 1.0302696728646865 9.716129016291934 1.0513970869538654 9.700305871663497 1.0763239610099486 C 9.68448272703506 1.101250835066032 9.674355980443915 1.1293627600369645 9.670648444384252 1.158653972849807 C 9.64252755053044 1.1457712815149643 9.61178832178432 1.139629795925694 9.580876129528379 1.1407182534947184 C 9.549963937272437 1.1418067110637429 9.5197318272695 1.1500950601581599 9.492586686036466 1.164923738878148 C 9.44986207147968 1.192128516839964 9.418966975174074 1.2344424445290476 9.406064729541278 1.2834222869171883 C 9.3227280315601 1.217726772829396 9.227601002062729 1.1679405022837182 9.125805629344416 1.1379637300079808 Z M 4.626617551864456 0.6269772755076504 C 4.745743208206013 0.6269772755076504 4.8648688738902575 0.6489215687191036 4.977097786328949 0.6896750852740727 C 5.144427543460684 0.768896476396666 5.2936728004906595 0.8816909955567113 5.4155550448145195 1.0210466375085256 C 5.53743728913838 1.1604022794603401 5.629350672365694 1.3233396889224407 5.685581734668039 1.4997294391194695 C 5.490163430402376 1.456656231149524 5.28945068117244 1.442711978020625 5.089953565072503 1.458348953435817 C 4.4128182199376775 1.5210466744467002 3.7983807538848833 1.8721540344968632 3.4096549200606967 2.43016373420975 C 3.2967990292048923 2.593177800429627 3.2152921012468223 2.7687314921330692 3.1525943856618235 2.975633976607462 L 3.315608587257402 3.0383316368908715 C 3.434734243598959 3.082220041131355 3.5726689067744624 3.0383317490031314 3.641636392516558 2.925475848380735 C 3.760762048858115 2.7311129146484006 3.9927436334262265 2.4238937439568895 4.400278763707672 2.185642410655415 C 4.807813893989118 1.9473910773539407 5.19026958862005 1.9035029452192547 5.415981370331659 1.8972331733517336 C 5.54764656698741 1.8972331733517336 5.654233188687735 1.7969167393872008 5.6730425026625335 1.6715212973654343 L 5.698121564605546 1.5047453416319503 L 5.698121564605546 1.5229277079590429 L 5.8862142302121345 1.8514635674305169 L 5.9307296697990814 1.8514635674305169 C 6.0232802383296296 1.8514965232047855 6.113452130588259 1.8807865430480213 6.188355847871466 1.9351468489901036 C 6.263259565154673 1.9895071549321859 6.319060833467136 2.0661552286796137 6.347784849185465 2.154135576968615 C 6.376508864903794 2.242115925257616 6.376684551807029 2.336924760365365 6.3482871120668065 2.4250110547400676 C 6.319889672326584 2.51309734911477 6.2643728398001475 2.589952288667278 6.18967129827498 2.6445900911382414 L 6.345788952164131 2.958078691521313 C 6.4041638109026735 3.1024502733563617 6.429559727757423 3.2580361923068053 6.420122662738754 3.4134765988864553 C 6.410685597720085 3.5689170054661052 6.366653850087352 3.7202879238614566 6.291242007386381 3.856537075228946 L 6.286225357892976 3.855282912747059 C 6.19719460017402 4.013281169881338 6.066783939599122 4.15058908140422 5.898754060149641 4.248397526741759 L 5.459870177180931 4.499188765807449 C 5.187762104715225 4.657813992070412 4.916281300289946 4.687908977381633 4.593388078807666 4.580695873658894 C 4.251685523497377 4.467839973036498 3.9256570829354693 3.9449407313836486 3.9256570829354693 3.9449407313836486 C 3.858307825414198 3.985670522181595 3.7811599852448063 4.007341213122933 3.702453252263062 4.007638391667058 C 3.6222525768326386 4.00695959251505 3.5437711707886215 3.984317116992886 3.4755344700647286 3.9421702132144842 C 3.4072977693408357 3.9000233094360826 3.3519152075838363 3.8399837000396797 3.3154023007168507 3.768573497065504 C 3.278889393849865 3.697163294091328 3.262642756874282 3.617112888862151 3.2684269688753314 3.5371181847408186 C 3.2742111808763807 3.457123480619486 3.301805074747956 3.380243096255302 3.348211427576518 3.3148285728618276 L 3.1525943856618235 2.975633976607462 C 3.026473971282576 2.837622457883498 2.930194259683751 2.6756936757111918 2.8697797240901344 2.4987653755878676 C 2.8093651884965176 2.3218370754645434 2.7861163894033805 2.13434393257608 2.8014875184596555 1.948018233336391 C 2.8431967977642914 1.7700517736854502 2.9231208081890383 1.6032886548057363 3.0357166173095225 1.4592959283252989 C 3.1483124264300066 1.3153032018448614 3.290884696923339 1.197527731169391 3.453543726909969 1.1141385294104773 L 3.691794516402582 0.9762035273039641 L 3.9300459038271964 0.8319989086521232 C 4.1403693636018115 0.7040486991628774 4.380515167775863 0.6333666372893482 4.626617551864456 0.6269772755076504 Z M 6.863044380514253 4.352475971674847 C 6.9097020983506745 4.330871458024051 6.9557018807748685 4.307872162753587 7.000980118098822 4.283508694846111 L 7.0059955717282225 4.288524148909551 C 7.320738083130724 4.131779848718015 7.587830739337778 3.8935285714726713 7.780312730341221 3.598849287859999 C 7.891607504825041 3.4187887393606142 7.966186360513302 3.218491815818644 7.999754970791577 3.0094906832639006 C 8.00602474211651 2.8596431369147655 7.9621358640292454 2.7123036539341308 7.8743590631445155 2.5906700733979067 L 7.865581421361061 2.576876378859338 L 7.8154232974750375 2.4890995049795523 C 7.789788114392774 2.44303199342679 7.781388047982953 2.389343524874113 7.791727252251721 2.337647501392155 C 7.802066456520488 2.285951477910197 7.830469821860273 2.239624052767997 7.871851336329814 2.206959884221198 C 7.905437510860636 2.183380249179524 7.945552953365904 2.170885284446814 7.986588508116395 2.171222083324943 C 8.016020321170272 2.1715107091488273 8.045143328037716 2.1772503572095676 8.07248383187391 2.188150436653162 C 8.07672200981219 2.1571107280403474 8.087953140897714 2.127438791335227 8.105330628449678 2.101372557751499 C 8.122708116001643 2.0753063241677707 8.145778112405255 2.0535265662083946 8.172800079645958 2.0376760519729804 C 8.20253903588789 2.0144270897065097 8.238585822060223 2.0006638622585147 8.276251882834384 1.998176361563118 C 8.30517609599667 1.9980913023162592 8.333796085560754 2.004071671475217 8.360266112514873 2.015731646649267 C 8.364504290453153 1.9846919380364527 8.375735421538677 1.9550200013313324 8.393112909090641 1.928953767747604 C 8.410490396642606 1.9028875341638758 8.433560393046218 1.8811077762044994 8.46058236028692 1.8652572619690855 C 8.496532131991994 1.8442911552331642 8.537833082131337 1.8343064321021414 8.57939025314038 1.8365346988886766 C 8.620947424149422 1.8387629656752118 8.660943803444871 1.8531067454405776 8.69444552475181 1.8777967940257674 C 8.700417065812587 1.8522547997054797 8.711937871304206 1.8283407127711715 8.72819161105798 1.8077526415689602 C 8.744445350811754 1.787164570366749 8.765033144622985 1.7704074206344047 8.788491857555105 1.7586710900042768 C 8.820573700568719 1.7403201372018786 8.856864368256204 1.7305992508959906 8.893823558956553 1.730457068135236 C 8.929856714147789 1.7302938447279825 8.965272710086499 1.7398076160052802 8.99637368068657 1.7580049936968527 C 9.027474651286642 1.7762023713884252 9.053119606820056 1.8024158831110426 9.070630855964987 1.8339082823443678 C 9.08379737586413 1.859614348285824 9.098845831850014 1.8846933633500738 9.114520260746263 1.9091454746844585 C 9.123656011246057 1.923943630841661 9.129768864251114 1.940405098502283 9.132507251218323 1.9575791668693447 C 9.135245638185532 1.9747532352364066 9.134554918990823 1.9922997218458178 9.13047428241289 2.009205218287029 C 9.126393645834959 2.0261107147282402 9.119004793968175 2.0420403276665935 9.1087334748348 2.0560741222883165 C 9.098462155701425 2.0701079169100396 9.085511266198193 2.0819676872258555 9.070630855964987 2.090968838989358 C 9.17094719716391 2.2690303698367806 9.237407638107495 2.4646474473656252 9.264994632404333 2.667788061011788 C 9.293131509260828 3.1909377988242342 9.16431671051282 3.710563325114277 8.895078020295905 4.159993870587057 C 8.511368013808621 4.820827852751146 8.015428412866457 5.200775816077466 7.357102438930391 5.499216970518369 L 6.863044380514253 4.35184874095089 L 6.863044380514253 4.352475971674847 Z M 6.271805629742446 4.564394452088605 L 6.769625876312636 5.719286460683298 L 6.709435649303806 5.73746837856135 C 6.305035401765237 5.8785382449966574 5.694359451192994 6.05597267591776 5.165190750901539 6.097980149415473 L 5.077413735134996 6.097980149415473 C 4.770194927367099 6.072901061945388 4.525674240423272 5.809570650516517 4.506864926448474 5.471002948649328 C 4.4880556124736755 5.094816613241341 4.75138589250509 4.775058494411169 5.089953565072503 4.749979406941085 C 5.480037601438319 4.720407364595299 5.867220845439883 4.660453553777206 6.247980431206784 4.570663769667906 L 6.271805629742446 4.564394452088605 Z M 8.57406507073415 8.938187299397182 L 8.562779702135995 8.941948889944763 L 8.575319532073502 8.941948889944763 L 8.431741708121859 17.05754133180028 L 7.113836195808376 17.05754133180028 C 7.060543137794694 15.063753791508699 6.937027913146408 10.679929475511939 6.888750673126941 10.578359168688857 C 6.8779840082045 10.547111473148362 6.858401401151097 10.519648965450507 6.832366881240282 10.499288633954786 C 6.806332361329467 10.478928302459064 6.774959924929326 10.466541825826168 6.742038489622922 10.463623182836985 C 6.651753784412429 10.463623182836987 6.562722269935784 10.564566389733747 6.562722269935784 10.766453046437165 L 6.468675937132489 14.064353265970775 C 6.432274831871443 14.396972328693021 6.269833855540302 14.70300772471655 6.014745095343573 14.919549172856858 L 6.01098290718952 14.923311361336491 L 3.9356891860582754 16.741545004385486 L 3.9356891860582754 16.743426098625303 L 2.8579149593824313 15.915816384952251 L 4.785870163237983 13.84929982780134 C 4.829758563680348 13.799141652861172 4.8548374340982665 13.73644377769593 4.8548374340982665 13.372797011715377 L 4.8548374340982665 8.940067795704945 L 4.873646581072524 8.940067795704945 L 8.57406507073415 8.938187299397182 Z" fill="rgb(15.000000055879354,143.00000667572021,66.00000366568565)"/>
        </svg>